<?xml version="1.0" ?>
<!-- Uploaded to: SVG Repo, www.svgrepo.com, Generator: SVG Repo Mixer Tools -->
<svg width="800px" height="800px" viewBox="0 0 64 64" xmlns="http://www.w3.org/2000/svg">
<defs>
<style>.cls-1{fill:#748a95;}.cls-2{fill:#617880;}.cls-3{fill:#e0e9ee;}.cls-4{fill:#dd5891;}</style>
</defs>
<g id="Werewolf">
<path class="cls-1" d="M47.93,8.55a1.14,1.14,0,0,0-.76.19l-5.72,3.5-3.09,1.45L37,17.89l2.64,4.24,2.44-.33,3-2.69,3.15-10.5A1.1,1.1,0,0,0,47.93,8.55Z" id="path22192"/>
<path class="cls-2" d="M48,8.56c-3.27,4.86-3.77,5.83-4.22,10.27l-2.36.33.64,2.64,2.35-.32s3.64-1.76,5-4.77c1-2.11.06-5.54-.56-7.4A1.09,1.09,0,0,0,48,8.56Z" id="path22194"/>
<path class="cls-1" d="M16.07,8.55a1.1,1.1,0,0,0-.26.06L19,19.11l3,2.69,2.44.33L27,17.89l-1.39-4.2-3.09-1.45-5.72-3.5A1.14,1.14,0,0,0,16.07,8.55Z" id="path136576-8"/>
<path class="cls-2" d="M16,8.56a1.09,1.09,0,0,0-.87.75c-.62,1.86-1.52,5.29-.56,7.4,1.37,3,5,4.77,5,4.77L22,21.8l.64-2.64-2.36-.33C19.78,14.39,19.28,13.42,16,8.56Z" id="path136748-9"/>
<path class="cls-1" d="M36.9,38.05v5.27l7.32,4.28c2.58,1.51,4.7,3.66,5.28,6.58A1.52,1.52,0,0,1,48,56H16a1.52,1.52,0,0,1-1.49-1.82c.58-2.92,2.7-5.07,5.28-6.58l7.32-4.28V38.05Z" id="path123162-5-2"/>
<path class="cls-3" d="M32,42.39a8.64,8.64,0,0,0,3.4-.72c1.45.82,4.32,1,6.06,1.08a1.3,1.3,0,0,0,1.35-1.43,12.7,12.7,0,0,0-1.53-4.8c1.09.47,3.55-.6,5.07-1.37a1.6,1.6,0,0,0,.72-2l-2.69-6.57c.09-1.3.11-2.55.11-3.56a12.4,12.4,0,0,0-2.25-7.15,7.59,7.59,0,0,1-.75-4.2c.07-.79-.38-1.24-1.15-1L37,11.58a12.46,12.46,0,0,0-10.06,0l-3.31-.94c-.77-.22-1.22.23-1.15,1a7.59,7.59,0,0,1-.75,4.2A12.4,12.4,0,0,0,19.51,23c0,1,0,2.26.11,3.56l-2.69,6.57a1.61,1.61,0,0,0,.72,2c1.52.76,4,1.83,5.07,1.36a12.52,12.52,0,0,0-1.53,4.8,1.3,1.3,0,0,0,1.36,1.43c1.73,0,4.6-.26,6.05-1.08A8.64,8.64,0,0,0,32,42.39Z" id="path25222-7-2-1-6"/>
<path class="cls-4" d="M39.5,22.41a.73.73,0,0,0-.35.09l-5.51,3.19a.71.71,0,0,0-.26.94,3.88,3.88,0,0,0,6.72-3.88A.72.72,0,0,0,39.5,22.41Z" id="path107963"/>
<path class="cls-4" d="M24.5,22.41a.72.72,0,0,0-.6.34,3.88,3.88,0,1,0,6.72,3.88.71.71,0,0,0-.26-.94L24.85,22.5A.73.73,0,0,0,24.5,22.41Z" id="path107820"/>
<path class="cls-2" d="M23.35,50.43a1,1,0,0,0,0,2h5.1a1.29,1.29,0,0,1,1.12.64,1,1,0,0,0,1.36.37h0a1,1,0,0,0,.36-1.37,3.31,3.31,0,0,0-2.85-1.64Z" id="path131588-6-3-5"/>
<path class="cls-2" d="M35.55,50.43a3.31,3.31,0,0,0-2.85,1.64,1,1,0,0,0,.37,1.37,1,1,0,0,0,1.36-.37,1.29,1.29,0,0,1,1.12-.64h5.1a1,1,0,0,0,0-2Z" id="path132344-1-6-4"/>
<path class="cls-2" d="M28.81,45.36a1,1,0,0,0-.53,1.31h0l1,2.39a1,1,0,0,0,1.85-.78l-1-2.39A1,1,0,0,0,28.81,45.36Z" id="path133885-0-7"/>
<path class="cls-2" d="M34.42,45.35a1,1,0,0,0-.54.54l-1,2.39a1,1,0,0,0,1.85.78l1-2.39a1,1,0,0,0-.53-1.31h0A1,1,0,0,0,34.42,45.35Z" id="path133967-6-6"/>
</g>
</svg>