<?xml version="1.0" standalone="no"?>
<!DOCTYPE svg PUBLIC "-//W3C//DTD SVG 20010904//EN"
 "http://www.w3.org/TR/2001/REC-SVG-20010904/DTD/svg10.dtd">
<svg version="1.0" xmlns="http://www.w3.org/2000/svg"
 width="470.000000pt" height="290.000000pt" viewBox="0 0 470.000000 290.000000"
 preserveAspectRatio="xMidYMid meet">

<g transform="translate(0.000000,290.000000) scale(0.100000,-0.100000)"
fill="#000000" stroke="none">
<path d="M251 2194 c0 -11 3 -14 6 -6 3 7 2 16 -1 19 -3 4 -6 -2 -5 -13z"/>
<path d="M252 2135 c0 -16 2 -22 5 -12 2 9 2 23 0 30 -3 6 -5 -1 -5 -18z"/>
<path d="M1782 2025 c-101 -47 -228 -203 -270 -335 -42 -130 -57 -425 -27
-527 21 -70 89 -144 171 -184 58 -29 71 -31 131 -27 88 6 139 33 190 100 55
72 152 269 198 402 35 104 37 114 33 215 -3 95 -7 114 -36 175 -68 144 -150
206 -271 206 -49 0 -80 -7 -119 -25z"/>
<path d="M2685 2039 c-115 -28 -192 -140 -217 -314 -16 -118 -14 -166 13 -265
23 -87 128 -303 199 -412 54 -83 93 -103 195 -103 118 0 202 53 271 171 23 39
28 61 32 143 10 210 -31 433 -106 575 -42 80 -119 164 -177 190 -46 22 -152
30 -210 15z"/>
<path d="M3623 1510 c0 -30 2 -43 4 -27 2 15 2 39 0 55 -2 15 -4 2 -4 -28z"/>
<path d="M4150 1311 c0 -17 18 -21 24 -6 3 9 0 15 -9 15 -8 0 -15 -4 -15 -9z"/>
<path d="M490 1299 c0 -5 5 -7 10 -4 6 3 10 8 10 11 0 2 -4 4 -10 4 -5 0 -10
-5 -10 -11z"/>
<path d="M2311 1293 c-8 -17 -101 -352 -137 -497 -14 -58 -15 -69 -3 -77 31
-20 60 -20 102 0 35 17 49 19 79 10 21 -5 40 -14 43 -19 9 -15 71 -12 84 4 13
15 13 10 -63 346 -54 235 -77 285 -105 233z"/>
<path d="M3941 1124 c0 -11 3 -14 6 -6 3 7 2 16 -1 19 -3 4 -6 -2 -5 -13z"/>
</g>
</svg>
